<?xml version="1.0" encoding="UTF-8"?><svg id="Layer_2" xmlns="http://www.w3.org/2000/svg" viewBox="0 0 193.28 91.42"><defs><style>.cls-1{fill:#fff;}</style></defs><g id="Layer_1"><path class="cls-1" d="M16.31,84.01c0-1.04-.37-1.84-1.11-2.4-.74-.57-2.06-1.16-3.98-1.77-1.92-.63-3.43-1.24-4.55-1.84-3.05-1.65-4.57-3.87-4.57-6.65,0-1.45.41-2.74,1.22-3.87.82-1.14,2-2.03,3.52-2.67,1.54-.64,3.26-.96,5.16-.96s3.63.35,5.12,1.05c1.5.69,2.66,1.67,3.48,2.93.84,1.27,1.25,2.7,1.25,4.31h-5.53c0-1.23-.39-2.18-1.16-2.86-.77-.69-1.86-1.03-3.26-1.03s-2.4.29-3.15.87c-.75.57-1.12,1.31-1.12,2.25,0,.87.44,1.6,1.31,2.19.88.59,2.18,1.14,3.89,1.66,3.15.95,5.44,2.12,6.88,3.52,1.44,1.4,2.16,3.15,2.16,5.24,0,2.32-.88,4.15-2.64,5.47-1.76,1.32-4.12,1.97-7.1,1.97-2.06,0-3.94-.37-5.64-1.12-1.7-.76-2.99-1.8-3.89-3.12-.88-1.32-1.33-2.84-1.33-4.57h5.55c0,2.96,1.77,4.44,5.31,4.44,1.32,0,2.34-.26,3.08-.79.74-.54,1.11-1.29,1.11-2.25Z"/><path class="cls-1" d="M24.82,80.9c0-1.98.38-3.74,1.14-5.29.76-1.55,1.86-2.75,3.28-3.59,1.44-.85,3.1-1.27,5-1.27,2.69,0,4.89.82,6.58,2.47,1.71,1.65,2.66,3.88,2.86,6.71l.04,1.36c0,3.06-.85,5.52-2.56,7.37-1.71,1.84-4,2.77-6.88,2.77s-5.17-.92-6.89-2.77c-1.71-1.84-2.56-4.35-2.56-7.52v-.24ZM30.15,81.28c0,1.89.36,3.34,1.07,4.35.71,1,1.73,1.49,3.06,1.49s2.3-.49,3.02-1.47c.73-1,1.09-2.58,1.09-4.76,0-1.86-.36-3.29-1.09-4.31-.72-1.02-1.75-1.53-3.06-1.53s-2.31.51-3.02,1.53c-.71,1.01-1.07,2.57-1.07,4.7Z"/><path class="cls-1" d="M53,91.05h-5.35v-28.32h5.35v28.32Z"/><path class="cls-1" d="M69.34,91.05c-.25-.48-.42-1.08-.53-1.79-1.29,1.44-2.97,2.16-5.03,2.16-1.95,0-3.58-.57-4.87-1.7-1.28-1.13-1.92-2.56-1.92-4.28,0-2.11.78-3.74,2.34-4.87,1.57-1.13,3.84-1.7,6.8-1.71h2.45v-1.14c0-.92-.24-1.66-.72-2.21-.47-.55-1.21-.83-2.23-.83-.9,0-1.6.22-2.12.65-.5.43-.76,1.02-.76,1.77h-5.33c0-1.16.36-2.22,1.07-3.21.71-.98,1.72-1.75,3.02-2.3,1.3-.57,2.77-.85,4.39-.85,2.46,0,4.41.62,5.84,1.86,1.45,1.23,2.18,2.96,2.18,5.2v8.65c.01,1.89.28,3.32.79,4.3v.31h-5.38ZM64.93,87.35c.79,0,1.51-.17,2.18-.52.66-.36,1.16-.83,1.47-1.42v-3.43h-1.99c-2.67,0-4.09.92-4.26,2.77l-.02.31c0,.66.23,1.21.7,1.64.47.43,1.11.65,1.92.65Z"/><path class="cls-1" d="M89.61,76.1c-.73-.1-1.36-.15-1.92-.15-2.02,0-3.34.68-3.96,2.05v13.05h-5.33v-19.95h5.03l.15,2.38c1.07-1.83,2.55-2.75,4.44-2.75.59,0,1.14.08,1.66.24l-.07,5.12Z"/><path class="cls-1" d="M113.38,83.53h-12.18l-2.77,7.52h-2.38l10.16-26.84h2.16l10.16,26.84h-2.36l-2.78-7.52ZM101.89,81.6h10.77l-5.38-14.62-5.38,14.62Z"/><path class="cls-1" d="M126.64,80.12v10.93h-2.27v-26.84h9.14c2.79,0,4.99.71,6.6,2.14,1.62,1.43,2.43,3.39,2.43,5.88s-.78,4.47-2.34,5.84c-1.55,1.36-3.8,2.05-6.75,2.05h-6.82ZM126.64,78.2h6.88c2.2,0,3.88-.52,5.03-1.57,1.15-1.04,1.73-2.5,1.73-4.37s-.58-3.33-1.73-4.42c-1.14-1.11-2.77-1.67-4.88-1.7h-7.02v12.06Z"/><path class="cls-1" d="M151.79,80.12v10.93h-2.27v-26.84h9.14c2.79,0,4.99.71,6.6,2.14,1.62,1.43,2.43,3.39,2.43,5.88s-.78,4.47-2.34,5.84c-1.55,1.36-3.8,2.05-6.75,2.05h-6.82ZM151.79,78.2h6.88c2.2,0,3.88-.52,5.03-1.57,1.15-1.04,1.73-2.5,1.73-4.37s-.58-3.33-1.73-4.42c-1.14-1.11-2.77-1.67-4.88-1.7h-7.02v12.06Z"/><path class="cls-1" d="M0,51.63l19.99-12.77-6.11-23.87,23.32,5.55L49.97,0l13.32,20.54,22.76-5.55-5,23.87,20.54,12.77h-26.12c.02-.37.02-.74.02-1.11,0-13.8-11.19-24.98-24.98-24.98s-24.98,11.19-24.98,24.98c0,.37,0,.74.02,1.11H0Z"/><polygon class="cls-1" points="193.28 76.94 185.66 76.94 185.66 69.31 181.66 69.31 181.66 76.94 174.03 76.94 174.03 80.94 181.66 80.94 181.66 88.56 185.66 88.56 185.66 80.94 193.28 80.94 193.28 76.94"/><path class="cls-1" d="M190.81,84.22c.37,0,.74.1,1.1.29.36.19.64.47.84.83.2.36.3.73.3,1.12s-.1.75-.29,1.11c-.2.36-.47.63-.83.83-.35.2-.72.29-1.11.29s-.76-.1-1.11-.29c-.35-.2-.63-.47-.83-.83-.2-.36-.3-.73-.3-1.11s.1-.76.3-1.12c.2-.36.48-.63.84-.83s.72-.29,1.1-.29ZM190.81,84.59c-.31,0-.62.08-.92.24-.3.16-.53.39-.7.69-.17.3-.25.61-.25.93s.08.63.25.93.4.53.69.69c.3.16.6.25.93.25s.63-.08.93-.25.53-.39.69-.69c.16-.3.25-.6.25-.93s-.08-.64-.25-.93-.4-.53-.7-.69-.6-.24-.92-.24ZM189.83,87.69v-2.4h.83c.28,0,.49.02.61.07.13.04.23.12.3.23.07.11.11.23.11.35,0,.18-.06.33-.19.46-.13.13-.29.2-.5.22.08.04.15.08.2.13.1.09.21.25.36.48l.29.47h-.47l-.21-.38c-.17-.3-.3-.48-.41-.56-.07-.06-.17-.08-.31-.08h-.23v1.02h-.39ZM190.22,86.34h.47c.22,0,.38-.03.46-.1s.12-.16.12-.27c0-.07-.02-.13-.06-.19s-.09-.1-.16-.13-.2-.04-.39-.04h-.44v.73Z"/></g></svg>